<!-- Dumbbell icon for Training tab -->
<svg width="15" height="15" viewBox="0 0 15 15" fill="none" xmlns="http://www.w3.org/2000/svg">
  <path
    fill-rule="evenodd"
    clip-rule="evenodd"
    d="M2.5 4.5C2.5 4.22386 2.72386 4 3 4C3.27614 4 3.5 4.22386 3.5 4.5V6.5H4V4.5C4 3.94772 4.44772 3.5 5 3.5C5.55228 3.5 6 3.94772 6 4.5V7H9V4.5C9 3.94772 9.44772 3.5 10 3.5C10.5523 3.5 11 3.94772 11 4.5V6.5H11.5V4.5C11.5 4.22386 11.7239 4 12 4C12.2761 4 12.5 4.22386 12.5 4.5V10.5C12.5 10.7761 12.2761 11 12 11C11.7239 11 11.5 10.7761 11.5 10.5V8.5H11V10.5C11 11.0523 10.5523 11.5 10 11.5C9.44772 11.5 9 11.0523 9 10.5V8H6V10.5C6 11.0523 5.55228 11.5 5 11.5C4.44772 11.5 4 11.0523 4 10.5V8.5H3.5V10.5C3.5 10.7761 3.27614 11 3 11C2.72386 11 2.5 10.7761 2.5 10.5V4.5Z"
    fill="currentColor"
  />
</svg>
