<!-- Tabler home icon (MIT license) adapted to 15x15 viewBox -->
<svg width="15" height="15" viewBox="0 0 15 15" fill="none" xmlns="http://www.w3.org/2000/svg">
  <path
    fill-rule="evenodd"
    clip-rule="evenodd"
    d="M7.07926 0.222253C7.31275 -0.007434 7.6873 -0.007434 7.92079 0.222253L14.6708 6.86225C14.907 7.09465 14.9101 7.47095 14.6777 7.70713C14.4453 7.94331 14.069 7.9464 13.8328 7.714L13.5 7.38623V12.5C13.5 12.7761 13.2762 13 13 13H10C9.72386 13 9.5 12.7761 9.5 12.5V8.5H5.5V12.5C5.5 12.7761 5.27614 13 5 13H2C1.72386 13 1.5 12.7761 1.5 12.5V7.38623L1.16718 7.714C0.930976 7.9464 0.554681 7.94331 0.322294 7.70713C0.0899079 7.47095 0.0930283 7.09465 0.329233 6.86225L7.07926 0.222253ZM2.5 6.40477V12H4.5V8C4.5 7.72386 4.72386 7.5 5 7.5H10C10.2761 7.5 10.5 7.72386 10.5 8V12H12.5V6.40477L7.50003 1.49478L2.5 6.40477Z"
    fill="currentColor"
  />
</svg>
