<!-- Radix gear icon (MIT license) -->
<!-- https://github.com/radix-ui/icons/blob/master/packages/radix-icons/icons/gear.svg -->
<svg width="15" height="15" viewBox="0 0 15 15" fill="none" xmlns="http://www.w3.org/2000/svg">
  <path
    fill-rule="evenodd"
    clip-rule="evenodd"
    d="M7.07095 0.650238C6.67391 0.650238 6.32977 0.925096 6.24198 1.31231L6.0039 2.36247C5.6249 2.47269 5.26335 2.62363 4.92436 2.81013L4.01335 2.23585C3.67748 2.02413 3.23978 2.07312 2.95903 2.35386L2.35294 2.95996C2.0722 3.2407 2.0232 3.6784 2.23493 4.01427L2.80942 4.92561C2.62307 5.2645 2.47227 5.62594 2.36216 6.00481L1.31209 6.24287C0.924879 6.33065 0.650024 6.6748 0.650024 7.07183V7.92897C0.650024 8.32601 0.924879 8.67015 1.31209 8.75793L2.36228 8.99603C2.47246 9.375 2.62335 9.73652 2.80979 10.0755L2.2357 10.9867C2.02398 11.3225 2.07297 11.7602 2.35372 12.041L2.95979 12.6471C3.24054 12.9278 3.67823 12.9768 4.01411 12.7651L4.92507 12.1909C5.26384 12.3771 5.62516 12.5278 6.00394 12.638L6.24198 13.6882C6.32977 14.0755 6.67391 14.3503 7.07095 14.3503H7.92809C8.32512 14.3503 8.66927 14.0755 8.75705 13.6882L8.99505 12.6383C9.37411 12.5282 9.73573 12.3773 10.0749 12.1907L10.9854 12.7649C11.3213 12.9766 11.759 12.9276 12.0397 12.6469L12.6458 12.0408C12.9266 11.76 12.9756 11.3223 12.7638 10.9865L12.1897 10.0755C12.3762 9.73627 12.5272 9.37454 12.6375 8.99531L13.6877 8.75723C14.0749 8.66945 14.3498 8.32531 14.3498 7.92827V7.07114C14.3498 6.6741 14.0749 6.32996 13.6877 6.24217L12.6376 6.00412C12.5275 5.62516 12.3767 5.26364 12.1903 4.92469L12.7644 4.01393C12.9762 3.67806 12.9272 3.24036 12.6464 2.95962L12.0403 2.35352C11.7596 2.07278 11.3219 2.02378 10.986 2.23551L10.0755 2.80955C9.73622 2.62296 9.37437 2.47203 8.99505 2.36183L8.75705 1.31231C8.66927 0.925096 8.32512 0.650238 7.92809 0.650238H7.07095ZM4.92053 3.81251C5.44724 3.44339 6.05665 3.18424 6.71543 3.06839L7.07095 1.60024H7.92809L8.28362 3.06816C8.94264 3.18387 9.55229 3.44302 10.0793 3.81224L11.3227 2.98298L11.9175 3.57779L11.0889 4.89818C11.4583 5.4251 11.7176 6.03479 11.8335 6.69389L13.2998 7.04914V7.90627L11.8338 8.26157C11.718 8.92097 11.4585 9.53095 11.0888 10.0581L11.9171 11.3782L11.3223 11.973L10.0019 11.1449C9.47495 11.5148 8.86518 11.7744 8.20575 11.8903L7.92809 13.2803H7.07095L6.79345 11.8905C6.13375 11.7747 5.52371 11.5151 4.99654 11.1451L3.67598 11.9734L3.08117 11.3786L3.90965 10.0584C3.53993 9.53115 3.28033 8.92103 3.16454 8.2614L1.70002 7.90627V7.04914L3.16466 6.69397C3.28058 6.03436 3.54029 5.42446 3.91017 4.89752L3.08153 3.57713L3.67635 2.98232L4.92053 3.81251ZM7.50002 5.10238C6.17569 5.10238 5.10241 6.17566 5.10241 7.49999C5.10241 8.82432 6.17569 9.89761 7.50002 9.89761C8.82435 9.89761 9.89763 8.82432 9.89763 7.49999C9.89763 6.17566 8.82435 5.10238 7.50002 5.10238ZM6.05241 7.49999C6.05241 6.70013 6.70016 6.05238 7.50002 6.05238C8.29988 6.05238 8.94763 6.70013 8.94763 7.49999C8.94763 8.29985 8.29988 8.94761 7.50002 8.94761C6.70016 8.94761 6.05241 8.29985 6.05241 7.49999Z"
    fill="currentColor"
  />
</svg>
